<?xml version="1.0" encoding="utf-8"?>
<!-- Generator: Adobe Illustrator 19.0.0, SVG Export Plug-In . SVG Version: 6.00 Build 0)  -->
<svg version="1.1" id="RotasulLogo" xmlns="http://www.w3.org/2000/svg" xmlns:xlink="http://www.w3.org/1999/xlink" x="0px"
	 y="0px" viewBox="0 0 1000 560" style="enable-background:new 0 0 1000 560;" xml:space="preserve">
<g id="RotasulLogoRota" transform="matrix(0.46920013,0,0,0.46920013,-3481.4645,-263.15301)">
	<path id="RotasulLogoRota-r" inkscape:connector-curvature="0" d="M7893.1,1118.7l-139.6-68.1c-35.6,48.6-55.4,80.7-59.6,96.3
		c-3,11.1-9.6,20.4-20,27.8c-10.1,7.7-17.4,11.5-21.8,11.5c-12.6,0-18.9-4.8-18.9-14.4c0-5.4,7.4-21,22.2-46.7
		c15.1-25.9,35.7-56.4,61.8-91.5c-14.6-5.9-23.6-9.9-27-11.9c-3.5-2-4.8-5.7-4.1-11.1c0.7-5.7,5.1-14.4,13-26.3
		c6.9-10.4,12.1-17.3,15.6-20.7c3.5-3.7,7.5-6.5,12.2-8.5c4.7-2.2,9.6-3.7,14.8-4.4c5.2-0.7,19.8-2.6,43.7-5.6
		c19.5-26.4,40.6-54.9,63.3-85.5c23-30.6,40.9-54.4,53.7-71.5c-38.8,5.2-65.8,9.5-81.1,13c-16.3,3.2-30,5.9-41.1,8.1
		c-10.9,2-18.5,3.8-23,5.6c-4.4,1.5-6.7,3.7-6.7,6.7c0,2.7,2.7,4.6,8.1,5.6c5.4,1,12.2,1.5,20.4,1.5c8.4,0,14.8,0.4,19.3,1.1
		c4.7,0.5,7,1.9,7,4.1c0,2.5-3.1,4-9.3,4.4c-5.9,0.2-22.8,1-50.7,2.2c-15.8,0.5-29.1,1-40,1.5c-10.6,0.5-18,0.7-22.2,0.7
		c-5.7,0-10.1-1.7-13.3-5.2c-3.2-3.5-4.8-8-4.8-13.7c0-4.2,2.3-12,7-23.3c4.7-11.4,11.4-22.8,20-34.4c8.6-11.6,18.5-20.6,29.6-27
		c12.6-7.7,32.1-15.3,58.5-23c26.7-7.9,56.2-14.2,88.5-18.9c32.6-4.9,64.8-7.4,96.7-7.4c19.3,0,38,1.1,56.3,3.3
		c18.5,2.2,35.2,4.9,50,8.1c15.1,3.2,26.9,6.4,35.6,9.6c22.5,7.4,39.6,18.6,51.5,33.7c12.1,15.1,18.1,31.6,18.1,49.6
		c0,17.5-3.1,34.7-9.3,51.5c-5.9,16.5-15.2,32-27.8,46.3c-12.3,14.1-27.3,25.6-44.8,34.4c-14.3,7.4-36,14.9-65.2,22.6
		c-29.1,7.7-64.3,14.4-105.5,20.4c-41.2,5.9-87.3,10.2-138.1,13c38,13.3,73.4,26.8,106.3,40.4c33.1,13.3,60.9,25.3,83.3,35.9
		c22.7,10.4,40.5,18.9,53.3,25.6c18,9.4,29.8,16.2,35.2,20.4c5.4,4.2,9,9.6,10.7,16.3c1.7,6.7,2.6,17.7,2.6,33
		c0,17.3-1.1,30-3.3,38.1c-2,8.4-6.4,12.6-13.3,12.6c-2.2,0-8.1-2.5-17.8-7.4c-9.4-4.7-22.5-11.7-39.3-21.1
		c-16.8-9.1-32.1-17.3-45.9-24.4C7944.3,1143.9,7922.7,1133,7893.1,1118.7L7893.1,1118.7z M7925.7,784.3c0.2,1.7,0.4,3.3,0.4,4.8
		c0.2,1.5,0.4,3.6,0.4,6.3c0,6.9-2.2,14.9-6.7,24.1c-4.2,8.9-9.8,18.1-16.7,27.8c-6.7,9.4-16.8,23-30.4,40.7
		c-13.3,17.5-25.7,33.7-37,48.5c51.8-9.9,96-19.4,132.6-28.5c36.8-9.1,67-18.3,90.7-27.4c23.7-9.4,41.5-19.1,53.3-29.3
		c12.1-10.4,18.1-21.1,18.1-32.2c0-12.3-12.6-22-37.8-28.9c-24.9-7.2-55.6-10.7-91.8-10.7c-7.4,0-15.3,0.2-23.7,0.7
		c-8.1,0.2-18,1-29.6,2.2C7936.2,783.4,7928.9,784,7925.7,784.3L7925.7,784.3z"/>
	<path id="RotasulLogoRota-o" inkscape:connector-curvature="0" d="M8347.5,1035.4v24.8c-16.3,14.8-29.4,24.7-39.3,29.6
		s-24.1,6.9-42.6,5.9c-32.1,38-60.4,57-84.8,57c-13.8,0-26.4-4.6-37.8-13.7c-11.4-9.1-20.5-21.6-27.4-37.4c-6.7-15.8-10-33.5-10-53
		c0-15.8,5.2-33.3,15.6-52.6c10.6-19.3,24.2-37.2,40.7-53.7c16.8-16.8,34.7-30.2,53.7-40.4c19-10.4,36.7-15.6,53-15.6
		c11.6,0,20.7,1.9,27.4,5.6c6.7,3.5,10,8.4,10,14.8c0,4.9-2.8,10.6-8.5,17c9.4,2,15.8,5.3,19.3,10c3.5,4.4,5.2,12.7,5.2,24.8
		c0,11.9-2.8,26.8-8.5,44.8c-5.4,18-13,34.9-22.6,50.7l6.7,6.7h5.6c4.2,0,8.3-1,12.2-3c4.2-2.2,7.9-4.4,11.1-6.7
		C8329.6,1048.8,8336.6,1043.5,8347.5,1035.4L8347.5,1035.4z M8271.2,938c-20.5,12.3-38,23.6-52.6,33.7c-14.6,9.9-26.9,20-37,30.4
		c-10.1,10.1-16.9,20.4-20.4,30.7c-6.2,27.7-9.3,42.6-9.3,44.8c0,16.3,11.4,24.4,34.1,24.4c10.6,0,28.4-9.1,53.3-27.4
		c-4.2-11.6-6.3-22.7-6.3-33.3c0-15.6,3.2-31.4,9.6-47.4C8249.1,977.6,8258.6,959,8271.2,938L8271.2,938z"/>
	<path id="RotasulLogoRota-t" inkscape:connector-curvature="0" d="M8476.4,843.9h15.9c13.1-23.5,24.9-40,35.6-49.6
		c10.6-9.9,22.7-14.8,36.3-14.8c13.6,0,20.4,3.1,20.4,9.3c0,3-5.3,11-15.9,24.1c-10.6,13.1-18.6,24.1-24.1,33
		c8.4,1,15.8,1.9,22.2,2.6c6.7,0.7,11.8,1.4,15.6,1.9c-14.1,26.2-31.7,53-53,80.4c-6.9-0.5-12.7-0.9-17.4-1.1
		c-4.7-0.5-9.5-0.9-14.4-1.1c-4.7-0.5-10.5-1-17.4-1.5c-13.3,21.5-24.6,40.7-33.7,57.8c-8.9,16.8-15.8,32.2-20.7,46.3
		c-4.7,14.1-7,27.4-7,40c0,17,6.8,25.6,20.4,25.6c9.4,0,21.6-4.9,36.7-14.8c15.3-10.1,35.7-25.6,61.1-46.3v24.8
		c-66.7,72.3-115.9,108.5-147.8,108.5c-11.1,0-20.1-4.3-27-13c-6.7-8.6-10-19.8-10-33.3c0-9.1,1.9-20,5.6-32.6
		c4-12.6,10.9-31.6,20.7-57c-3.5,3-6.8,5.9-10,8.9c-3,2.7-5.8,5.3-8.5,7.8c-2.5,2.2-5.2,4.7-8.1,7.4c-3,2.5-5.9,5.1-8.9,7.8v-25.6
		c25.9-21.7,57.3-59.9,94.1-114.4c-3.7-0.2-7.2-0.4-10.4-0.4c-3.2-0.2-7-0.4-11.5-0.4c-14.6,0-25.4,1-32.6,3c-3,0.7-5.8,1.6-8.5,2.6
		c-2.5,0.7-4.2,1.1-5.2,1.1s-1.5-0.7-1.5-2.2c0-8.1,5.1-20.4,15.2-36.7c8.1-13.8,15.8-24.1,23-30.7c7.4-6.7,16.3-11.1,26.7-13.3
		C8442.5,845.2,8457.4,843.9,8476.4,843.9L8476.4,843.9z"/>
	<path id="RotasulLogoRota-a" inkscape:connector-curvature="0" d="M8579.3,969.8c37.5-34.1,73.9-59.4,109.2-75.9
		c35.3-16.5,62.6-24.8,81.8-24.8c5.2,0,10,2.2,14.4,6.7c4.4,4.2,7.9,9.1,10.4,14.8c2.7,5.7,4.1,9.9,4.1,12.6c0,4.4-1.7,7.8-5.2,10
		c-3.5,2-9.5,4.4-18.1,7.4c1.7,4,3.9,9,6.7,15.2c2.7,6.2,4.8,11.2,6.3,15.2c1.5,3.7,2.2,7,2.2,10c0,5.9-6,17-18.1,33.3
		c-11.8,16-20.2,27.9-25.2,35.6c-4.7,7.7-7,17-7,28.1c0,18.3,8.4,27.4,25.2,27.4c17.3,0,44.3-16.2,81.1-48.5v22.6
		c-62.5,69.4-107.1,104.1-134.1,104.1c-9.6,0-16.5-3.2-20.7-9.6c-4-6.2-5.9-15.4-5.9-27.8c0-19.5,7-47.8,21.1-84.8
		c-36,40-62.8,68.5-80.4,85.5c-17.5,16.8-32,25.2-43.3,25.2c-5.4,0-12.2-4.7-20.4-14.1c-8.1-9.4-15.4-21.5-21.8-36.3
		c-6.2-15.1-9.3-30.6-9.3-46.7c0-11.6,1.1-21.2,3.3-28.9c2.2-7.9,6.5-15.9,13-24.1C8555,993.9,8565.2,983.2,8579.3,969.8
		L8579.3,969.8z M8756.7,929.1c-64.2,29.4-110,54.3-137.4,74.8c-27.2,20.5-40.7,41.6-40.7,63.3c0,7.9,1.4,14.4,4.1,19.6
		c2.7,4.9,6.4,7.4,11.1,7.4c2.7,0,7.5-1.7,14.4-5.2c25.9-15.3,49.6-35.2,71.1-59.6C8700.8,1004.8,8726.6,971.3,8756.7,929.1
		L8756.7,929.1z"/>
</g>
<g id="RotasulLogoSul" transform="matrix(0.45708037,-0.10595423,0.10595423,0.45708037,-3481.4645,-263.15301)">
	<path id="RotasulLogoSul-s" inkscape:connector-curvature="0" d="M8305.3,3409.5c-5.2-9.6-13.1-18.3-23.5-26
		c-10.5-7.7-22.3-13.9-35.4-18.5c-13-4.8-26.5-8.4-40.8-10.7c-42.2-6.3-81.6-20-118.2-41.1c-3.1-1.7-6.5-5.2-10-10.7
		c-3.6-5.4-5.3-10.7-5.3-15.7c0-18.4,3-36.8,9.1-55.2c6.3-18.6,14.2-33.1,23.8-43.6c15.5-17.3,43.3-32.5,83.4-45.5
		c40.3-13,85.7-19.4,136.1-19.4c30.1,0,53.3,2.3,69.6,6.9c16.5,4.6,24.8,11.7,24.8,21.3c0,15.7-2.2,27.8-6.6,36.4
		c-4.2,8.6-8.8,14.3-13.8,17.2c-4.8,2.7-13.4,6.5-25.7,11.3c-13.2,4.6-24.7,9.4-34.5,14.4c-9.6,5-17.9,9.8-24.8,14.4
		c-6.9,4.6-11.2,6.9-12.9,6.9c-2.1,0-3.1-0.8-3.1-2.5c0-3.6,3.7-8.9,11-16c7.5-7.3,16.7-13.7,27.6-19.1c11.5-6.1,17.2-9.9,17.2-11.6
		c0-2.7-6.4-4.1-19.1-4.1c-38.7,0-74.4,3.4-107.2,10.3c-32.8,6.9-58.7,16-77.7,27.3c-18.8,11.3-28.2,22.8-28.2,34.5
		c0,7.3,3.9,12.5,11.6,15.7c7.9,2.9,25.3,7.9,52,15c26.8,7.1,50.7,15.3,71.8,24.5c30.3,13,52.8,26.4,67.4,40.4
		c14.6,14,21.9,29.7,21.9,47c0,11.9-2.9,23.9-8.8,36.1c-5.6,11.9-14,22.9-25.1,32.9c-11.1,10-23.8,18.3-38.2,24.8
		c-12.3,5.2-27.9,10.1-46.7,14.7c-18.6,4.6-38.9,8.2-60.8,10.7c-21.7,2.7-42.5,4.1-62.4,4.1c-36.6,0-66-3.4-88.4-10.3
		c-22.2-6.9-33.2-17.3-33.2-31.3c0-6.3,3.8-16,11.3-29.2c7.5-13.4,16.4-22.4,26.6-27c9-3.6,17.7-5.5,26-6c8.4-0.6,12.5,0.3,12.5,2.8
		c0,0.6-0.3,1.3-0.9,1.9c-0.6,0.6-1.4,1.1-2.2,1.6c-0.8,0.4-1.7,0.8-2.5,1.3c-4.2,1.7-7.6,3-10.3,4.1c-2.5,0.8-4.6,1.8-6.3,2.8
		c-1.5,0.8-2.2,2.1-2.2,3.8c0,4.4,21.6,6.6,64.9,6.6c37.6,0,68.4-1.4,92.5-4.1c24-2.7,45.2-7.6,63.6-14.7
		C8273.5,3431.8,8290.2,3422,8305.3,3409.5L8305.3,3409.5z"/>
	<path id="RotasulLogoSul-u" inkscape:connector-curvature="0" d="M8544,3377.9c-30.3,40.1-53.4,68.7-69.3,85.6
		c-15.7,16.9-28.5,25.4-38.6,25.4c-7.9,0-15.3-3.2-21.9-9.7c-6.7-6.7-11.9-15.6-15.7-26.6c-3.6-11.3-5.3-23.3-5.3-36.1
		c0-8.4,0.7-15.9,2.2-22.6c1.7-6.7,4.7-14,9.1-21.9c4.4-8.2,10.1-16.9,17.2-26.3c7.3-9.4,16.2-20.1,26.6-32
		c6.3-7.3,11.5-13.5,15.7-18.5c4.4-5,8.6-8.4,12.5-10c4.2-1.9,10.9-2.8,20.1-2.8c6.7,0,13.1,0.9,19.1,2.8c6.1,1.7,9.1,3.4,9.1,5.3
		c0,3.8-3.1,10.6-9.4,20.4c-6.1,9.8-16,21.8-29.8,36.1c-13.6,14-29.4,27.8-47.3,41.4c-4,12.3-6,21.7-6,28.2c0,9,3.4,13.5,10.3,13.5
		c2.5,0,6.7-2.1,12.5-6.3c5.9-4.4,15.7-12.6,29.5-24.8c14-12.3,26.5-23.2,37.6-32.6c8.2-7.1,17.6-17.7,28.2-31.7
		c10.9-14.2,19.6-24.9,26.3-32c15.5-16.3,26-26.9,31.7-31.7c5.6-5,11.1-7.5,16.3-7.5c5,0,8.4,1.6,10,4.7c1.9,3.1,2.8,9.5,2.8,19.1
		c0,4.4-0.4,7.9-1.3,10.7c-0.8,2.7-2.6,6.3-5.3,10.7c-2.5,4.2-7.7,12-15.7,23.5s-17.3,25.1-28.2,40.8c-5.9,8.4-11,17.6-15.4,27.6
		c-4.4,9.8-6.6,17.2-6.6,22.3c0,10.9,4.3,16.3,12.9,16.3c7.1,0,15.4-2.9,24.8-8.8c9.4-5.9,23.8-16.4,43.3-31.7v21
		c-24.5,22.6-42.5,39-54.2,49.2c-11.7,10.2-21.8,18-30.4,23.2c-8.6,5.2-16.7,7.8-24.5,7.8c-17.6,0-26.3-10.4-26.3-31.3
		c0-7.9,2.6-18.6,7.8-32C8523.8,3423,8532.3,3403.4,8544,3377.9L8544,3377.9z"/>
	<path id="RotasulLogoSul-l" inkscape:connector-curvature="0" d="M8792.7,3397.9v23.2c-43.7,57.9-79.2,86.8-106.6,86.8
		c-14.8,0-26.5-8-35.1-24.1c-8.4-16.3-12.5-37.6-12.5-64c0-21.3,5-46.6,15-75.9c10-29.5,23.4-59.3,40.1-89.3
		c16.9-30.3,34.4-56.6,52.4-79c18.2-22.6,35-38.4,50.5-47.3c6.3-3.8,11.2-5.6,14.7-5.6c4.4,0,7.3,2,8.8,6c1.5,3.8,2.2,10.3,2.2,19.8
		c0,29.1-11.8,64.8-35.4,107.2c-23.6,42.2-56.5,85.4-98.8,129.5c-2.1,10.9-3.1,19.2-3.1,25.1c0,13.4,2.8,24.2,8.5,32.6
		c5.9,8.4,13.9,12.5,24.1,12.5c5.2,0,10.9-2,16.9-6c6.1-4.2,12.4-9.3,19.1-15.4C8760.3,3427.9,8773.3,3415.8,8792.7,3397.9
		L8792.7,3397.9z M8699,3341.4c10.9-10.7,21.3-22.8,31.4-36.4c10.2-13.6,19.9-28.1,28.8-43.6c9-15.5,16-29.4,21-41.7
		c5.2-12.3,7.8-21.6,7.8-27.9c0-4.8-1.7-7.2-5-7.2c-1.3,0-3.7,1.1-7.2,3.4c-12.7,10.4-27.1,30.9-42.9,61.4
		C8717,3279.9,8705.7,3310.5,8699,3341.4L8699,3341.4z"/>
</g>
</svg>
